# Blender v2.74 (sub 0) OBJ File: 'pillar.blend'
# www.blender.org
o Cube
v 0.500000 0.000000 0.500000
v 0.000000 0.000000 0.500000
v 0.000000 0.000000 -0.000000
v 0.500000 0.000000 0.000000
v 0.500000 1.000000 0.500000
v -0.000000 1.000000 0.500000
v 0.000000 1.000000 -0.000000
v 0.500000 1.000000 0.000000
vt 0.062500 0.062500
vt 0.062500 -0.000000
vt 0.000000 -0.000000
vt 0.000000 0.062500
vn 0.000000 -1.000000 0.000000
vn 0.000000 1.000000 0.000000
vn -0.000000 0.000000 1.000000
vn -1.000000 0.000000 -0.000000
vn 0.000000 -0.000000 -1.000000
vn 1.000000 0.000000 0.000000
s off
f 1/1/1 2/2/1 3/3/1
f 4/4/1 1/1/1 3/3/1
f 8/4/2 7/3/2 6/2/2
f 5/1/3 6/4/3 2/3/3
f 6/1/4 7/4/4 3/3/4
f 3/3/5 7/4/5 8/1/5
f 1/2/6 4/3/6 8/4/6
f 5/1/2 8/4/2 6/2/2
f 1/2/3 5/1/3 2/3/3
f 2/2/4 6/1/4 3/3/4
f 4/2/5 3/3/5 8/1/5
f 5/1/6 1/2/6 8/4/6
