x# Blender v2.74 (sub 0) OBJ File: ''
# www.blender.org
o Sphere_Sphere.001
v 0.500000 0.933013 0.250000
v 0.500000 0.750000 0.066987
v 0.500000 0.500000 0.000000
v 0.500000 0.250000 0.066987
v 0.500000 0.066987 0.250000
v 0.676777 0.933013 0.323223
v 0.806186 0.750000 0.193814
v 0.853553 0.500000 0.146447
v 0.806186 0.250000 0.193814
v 0.676777 0.066987 0.323223
v 0.750000 0.933013 0.500000
v 0.933013 0.750000 0.500000
v 1.000000 0.500000 0.500000
v 0.933013 0.250000 0.500000
v 0.750000 0.066987 0.500000
v 0.500000 1.000000 0.500000
v 0.676777 0.933013 0.676777
v 0.806186 0.750000 0.806186
v 0.853553 0.500000 0.853553
v 0.806186 0.250000 0.806186
v 0.676777 0.066987 0.676777
v 0.500000 0.000000 0.500000
v 0.500000 0.933013 0.750000
v 0.500000 0.750000 0.933012
v 0.500000 0.500000 1.000000
v 0.500000 0.250000 0.933012
v 0.500000 0.066987 0.750000
v 0.323223 0.933013 0.676777
v 0.193814 0.750000 0.806186
v 0.146447 0.500000 0.853553
v 0.193814 0.250000 0.806186
v 0.323223 0.066987 0.676777
v 0.250000 0.933013 0.500000
v 0.066987 0.750000 0.500000
v 0.000000 0.500000 0.500000
v 0.066987 0.250000 0.500000
v 0.250000 0.066987 0.500000
v 0.323223 0.933013 0.323223
v 0.193814 0.750000 0.193814
v 0.146447 0.500000 0.146447
v 0.193814 0.250000 0.193814
v 0.323223 0.066987 0.323223
vt -0.002841 0.002841
vt 0.059659 0.002841
vt 0.059659 0.065341
vt -0.002841 0.065341
vn 0.000000 -0.838300 -0.545200
vn 0.000000 -0.474400 -0.880300
vn 0.622500 -0.474400 -0.622500
vn 0.000000 0.000000 -1.000000
vn 0.707100 0.000000 -0.707100
vn 0.000000 0.474400 -0.880300
vn 0.622500 0.474400 -0.622500
vn 0.000000 0.838300 -0.545200
vn 0.385500 0.838300 -0.385500
vn 0.880300 -0.474400 0.000000
vn 0.545200 -0.838300 0.000000
vn 1.000000 0.000000 0.000000
vn 0.880300 0.474400 0.000000
vn 0.545200 0.838300 0.000000
vn 0.622500 -0.474400 0.622500
vn 0.707100 0.000000 0.707100
vn 0.622500 0.474400 0.622500
vn 0.385500 0.838300 0.385500
vn 0.000000 -0.474400 0.880300
vn 0.000000 -0.838300 0.545200
vn 0.000000 0.000000 1.000000
vn 0.000000 0.474400 0.880300
vn 0.000000 0.838300 0.545200
vn -0.622500 -0.474400 0.622500
vn -0.707100 0.000000 0.707100
vn -0.622500 0.474400 0.622500
vn -0.385500 0.838300 0.385500
vn -0.880300 -0.474400 0.000000
vn -0.545200 -0.838300 0.000000
vn -1.000000 0.000000 0.000000
vn -0.880300 0.474400 0.000000
vn -0.545200 0.838300 0.000000
vn -0.622500 -0.474400 -0.622500
vn -0.385500 -0.838300 -0.385500
vn -0.707100 0.000000 -0.707100
vn -0.622500 0.474400 -0.622500
vn -0.385500 0.838300 -0.385500
vn 0.000000 -1.000000 0.000000
vn 0.385500 -0.838300 -0.385500
vn 0.000000 1.000000 0.000000
vn 0.385500 -0.838300 0.385500
vn -0.385500 -0.838300 0.385500
s 1
f 5/1/1 4/2/2 9/3/3
f 3/2/4 8/3/5 9/4/3
f 2/2/6 7/3/7 8/4/5
f 1/2/8 6/3/9 7/4/7
f 9/2/3 14/3/10 15/4/11
f 8/2/5 13/3/12 14/4/10
f 8/1/5 7/2/7 12/3/13
f 6/2/9 11/3/14 12/4/13
f 15/1/11 14/2/10 20/3/15
f 14/1/10 13/2/12 19/3/16
f 12/2/13 18/3/17 19/4/16
f 11/2/14 17/3/18 18/4/17
f 20/2/15 26/3/19 27/4/20
f 19/2/16 25/3/21 26/4/19
f 18/2/17 24/3/22 25/4/21
f 18/1/17 17/2/18 23/3/23
f 27/1/20 26/2/19 31/3/24
f 26/1/19 25/2/21 30/3/25
f 24/2/22 29/3/26 30/4/25
f 23/2/23 28/3/27 29/4/26
f 31/2/24 36/3/28 37/4/29
f 30/2/25 35/3/30 36/4/28
f 29/2/26 34/3/31 35/4/30
f 29/1/26 28/2/27 33/3/32
f 36/2/28 41/3/33 42/4/34
f 36/1/28 35/2/30 40/3/35
f 35/1/30 34/2/31 39/3/36
f 33/2/32 38/3/37 39/4/36
f 22/1/38 5/2/1 10/3/39
f 1/1/8 16/2/40 6/3/9
f 22/1/38 10/2/39 15/3/11
f 6/1/9 16/2/40 11/3/14
f 22/1/38 15/2/11 21/3/41
f 11/1/14 16/2/40 17/3/18
f 22/1/38 21/2/41 27/3/20
f 17/1/18 16/2/40 23/3/23
f 22/1/38 27/2/20 32/3/42
f 23/1/23 16/2/40 28/3/27
f 22/1/38 32/2/42 37/3/29
f 28/1/27 16/2/40 33/3/32
f 22/1/38 37/2/29 42/3/34
f 33/1/32 16/2/40 38/3/37
f 22/1/38 42/2/34 5/3/1
f 41/2/33 4/3/2 5/4/1
f 40/2/35 3/3/4 4/4/2
f 40/1/35 39/2/36 2/3/6
f 38/2/37 1/3/8 2/4/6
f 38/1/37 16/2/40 1/3/8
f 10/4/39 5/1/1 9/3/3
f 4/1/2 3/2/4 9/4/3
f 3/1/4 2/2/6 8/4/5
f 2/1/6 1/2/8 7/4/7
f 10/1/39 9/2/3 15/4/11
f 9/1/3 8/2/5 14/4/10
f 13/4/12 8/1/5 12/3/13
f 7/1/7 6/2/9 12/4/13
f 21/4/41 15/1/11 20/3/15
f 20/4/15 14/1/10 19/3/16
f 13/1/12 12/2/13 19/4/16
f 12/1/13 11/2/14 18/4/17
f 21/1/41 20/2/15 27/4/20
f 20/1/15 19/2/16 26/4/19
f 19/1/16 18/2/17 25/4/21
f 24/4/22 18/1/17 23/3/23
f 32/4/42 27/1/20 31/3/24
f 31/4/24 26/1/19 30/3/25
f 25/1/21 24/2/22 30/4/25
f 24/1/22 23/2/23 29/4/26
f 32/1/42 31/2/24 37/4/29
f 31/1/24 30/2/25 36/4/28
f 30/1/25 29/2/26 35/4/30
f 34/4/31 29/1/26 33/3/32
f 37/1/29 36/2/28 42/4/34
f 41/4/33 36/1/28 40/3/35
f 40/4/35 35/1/30 39/3/36
f 34/1/31 33/2/32 39/4/36
f 42/1/34 41/2/33 5/4/1
f 41/1/33 40/2/35 4/4/2
f 3/4/4 40/1/35 2/3/6
f 39/1/36 38/2/37 2/4/6
